<?xml version="1.0" encoding="UTF-8"?>
<svg id="Layer_1" data-name="Layer 1" xmlns="http://www.w3.org/2000/svg" viewBox="0 0 540.65 212.57">
  <defs>
    <style>
      .cls-1 {
        fill: #362e25;
      }
    </style>
  </defs>
  <polygon class="cls-1" points="127.49 92.59 144.1 92.59 144.1 95.08 130.22 95.08 130.22 101.13 138.52 101.13 138.52 103.62 130.22 103.62 130.22 110.74 144.81 110.74 144.81 113.23 127.49 113.23 127.49 92.59"/>
  <path class="cls-1" d="M370.47,113.23l-3.07-.02-2.74-6.09h-10.33s-2.78,6.11-2.78,6.11h-2.79l9.66-20.65,2.54.02,9.51,20.5v.12ZM363.59,104.81l-4.09-9.01-4.09,9.01h8.19Z"/>
  <path class="cls-1" d="M285.64,144.19c-.25.03-.7.03-.95,0-5.41-.62-4.97-8.82.52-8.77s5.81,8.14.43,8.77ZM285.13,136.4c-4.47.1-4.21,6.91.09,6.84s4.32-6.94-.09-6.84Z"/>
  <path class="cls-1" d="M270.69,144.19c-1.43-.17-2.95-1.16-2.97-2.73,1.23-.18.84.19,1.33.87,1.05,1.47,4.68,1.09,4.23-.9-.24-1.07-3.15-1.23-4.13-1.69-.85-.39-1.33-1.01-1.28-1.98.15-2.69,4.56-3.01,5.89-1.08.12.18.63.93.2.99-1.08.16-.86-.53-1.56-.93-1.21-.7-3.86-.32-3.46,1.44.11.46.77.69,1.19.83,1.56.54,4.26.41,4.21,2.72-.03,1.5-1.33,2.31-2.7,2.46-.25.03-.7.03-.95,0Z"/>
  <path class="cls-1" d="M243.97,48.73c6.72-.4,19.77.98,22.86,8.15s-6.93,11.67-12.49,12.77c-7.47,1.47-23.67.72-27.3-7.51-3.93-8.93,10.69-13.04,16.92-13.41ZM235.93,67.44c7.35,2.24,16.17,2.43,23.33-.57s10.08-9.16,2.14-13.68c-6.02-3.43-14.64-3.94-21.34-2.67-1.36.26-2.68.66-4.01,1.03-.03.22.24.09.36.06,2.83-.52,5.32-.91,8.24-.78,5.1.23,17.6,3.36,14.27,10.84-2.83,6.34-14.94,6.99-20.77,6.09-.61-.09-1.25-.32-1.84-.41-.13-.02-.41-.13-.38.09ZM236.41,66.14c5.05,1.11,10.44,1.13,15.37-.59s9.55-5.98,3.77-10.18c-4.13-3-10.92-3.67-15.86-3.09-1.06.12-2.1.43-3.16.58-.03.2.29.13.42.12.34-.01.63-.12.94-.13,4.05-.15,13.9,1.05,13.83,6.7s-9.9,6.74-13.95,6.59c-.31-.01-.6-.12-.94-.13-.13,0-.45-.07-.42.12ZM238.52,54.07c-2.56.11-5.94.79-8.08,2.24-4.5,3.05-1.27,6.23,2.47,7.57s8.13,1.36,11.83.32c2.37-.66,6.68-2.58,5.45-5.74s-7.32-4.36-10.28-4.43l-1.39.04Z"/>
  <path class="cls-1" d="M310.8,108.36v-15.78h2.73v20.64c-1.65.05-3.09-.75-4.16-1.95l-11.51-13.82v15.78h-2.73v-20.64c1.51-.02,2.88.65,3.92,1.72,3.95,4.07,7.44,9.36,11.27,13.64.13.15.29.34.47.42Z"/>
  <path class="cls-1" d="M250.11,92.59c2.52.22,5.2,1.75,5.9,4.3,1.02,3.67-1.01,6.63-4.54,7.62l5.1,8.72h-3.2l-4.63-8.42h-8.42v8.42h-2.73v-20.64h12.52ZM240.32,102.43h9.55c2.8,0,4.79-3.45,2.97-5.82-.47-.62-1.85-1.54-2.61-1.54h-9.91v7.35Z"/>
  <path class="cls-1" d="M170.91,94.96l-1.6,2.01c-2.52-2.43-9.63-3.82-12.22-1.18-1.61,1.64-.95,3.79,1.18,4.51,3.89,1.32,12.11-.45,13.83,4.68s-2.58,8.41-7.3,8.73c-4.67.31-8.88-.87-12.35-4.04-.07-.08-.03-.15,0-.24.06-.21,1.51-1.79,1.66-1.77,3.04,3.05,7.87,4.54,12.08,3.4,2.14-.58,4.02-2.17,3.36-4.6-.53-1.95-2.65-2.44-4.41-2.71-4.12-.62-12.06.31-11.67-6.01.36-5.9,8.01-6.29,12.39-5.15,1.85.48,3.47,1.32,5.05,2.37Z"/>
  <polygon class="cls-1" points="227.03 92.59 227.03 95.08 213.27 95.08 213.27 101.13 221.58 101.13 221.58 103.62 213.27 103.62 213.27 110.74 227.75 110.74 227.75 113.23 210.42 113.23 210.42 92.59 227.03 92.59"/>
  <path class="cls-1" d="M185.15,104.81v8.42h-2.73v-20.64h12.28c4.57,0,7.84,5.03,5.42,9.1-.93,1.55-3.36,3.12-5.18,3.12h-9.79ZM185.15,95.08v7.18l.18.18h8.66c3.11,0,5.62-3.31,3.38-5.99-.42-.5-1.81-1.37-2.43-1.37h-9.79Z"/>
  <path class="cls-1" d="M341.17,92.59c.12,1.23-.47,2.31-1.19,3.26-3.77,4.98-8.57,9.58-12.4,14.53-.09.12-.23.15-.18.36h13.88v2.49h-18.03c.09-1.16.41-2.16,1.14-3.07l12.74-15.07h-12.93v-2.49h16.97Z"/>
  <path class="cls-1" d="M285.88,113.23h-3.08l-2.9-6.18-10.07.03-2.81,6.15h-2.85l9.43-20.52c.16-.19,2.52-.19,2.73,0,.09.08.42.83.52,1.03,3.14,6.43,5.89,13.06,9.03,19.5ZM279,104.81l-4.09-9.01-4.09,9.01h8.19Z"/>
  <path class="cls-1" d="M247.02,135.65c.79.13,1.68,1.08,1.81,1.87.31,1.81-.51,2.87-2.23,3.29l2.61,3.26c-.32-.03-.7.06-1.01,0-.49-.09-2.41-2.75-2.79-3.32h-1.66v3.14c-.25.31-.71.14-1.07.18v-8.42c1.31.15,3.08-.21,4.33,0ZM243.76,139.92h2.31c.28,0,1.13-.33,1.35-.55.92-.87.21-2.78-.76-2.78h-2.91v3.32Z"/>
  <path class="cls-1" d="M300.77,135.65c.85.12,1.78,1.01,1.93,1.87.31,1.78-.53,2.89-2.22,3.29l2.61,3.26-1.3-.06c-.52-.49-2.15-3.01-2.61-3.2-.33-.14-1.39-.15-1.66.12v3.14h-.95v-8.42c1.3.13,2.95-.18,4.21,0ZM297.51,136.6v3.14l.18.18h2.25c.21,0,.93-.26,1.13-.41.69-.5.87-1.46.41-2.19-.11-.18-.79-.72-.94-.72h-3.03Z"/>
  <polygon class="cls-1" points="226.91 135.65 226.91 136.6 222.64 136.6 222.64 139.2 226.68 139.2 226.68 140.15 222.64 140.15 222.64 143.12 226.91 143.12 226.91 144.07 221.58 144.07 221.58 135.65 226.91 135.65"/>
  <path class="cls-1" d="M198.54,135.66l3.22,8.41-1.01-.12-1.01-2.43c-.15-.09-3.13-.11-3.51-.06-.22.03-.25.01-.4.2-.31.39-.74,2.22-.96,2.37l-1.07.05,3.31-8.35,1.42-.06ZM196.3,140.51h3.08l-1.6-3.8-1.48,3.8Z"/>
  <polygon class="cls-1" points="261.32 135.65 261.32 136.6 256.93 136.6 256.93 139.2 261.08 139.2 261.08 140.15 257.11 140.15 256.93 140.33 256.93 142.94 257.11 143.12 261.32 143.12 261.32 144.07 255.98 144.07 255.98 135.65 261.32 135.65"/>
  <path class="cls-1" d="M209.59,135.65v3.8c.78-.69,1.53-1.44,2.26-2.19.86-.88,1.21-1.94,2.73-1.6l-3.78,4.09,4.01,4.27c-1.46.48-1.9-.7-2.73-1.54s-1.63-1.65-2.49-2.43v4.03h-.95v-8.42h.95Z"/>
  <polygon class="cls-1" points="315.3 135.65 315.3 136.6 312.58 136.6 312.58 144.07 311.63 144.07 311.63 136.6 308.9 136.6 308.9 135.65 315.3 135.65"/>
  <polygon class="cls-1" points="183.61 135.65 183.61 142.94 183.79 143.12 187.76 143.12 187.74 143.87 187.58 144.07 182.66 144.07 182.66 135.65 183.61 135.65"/>
</svg>